<?xml version="1.0" standalone="no"?>
<!DOCTYPE svg PUBLIC "-//W3C//DTD SVG 20010904//EN"
 "http://www.w3.org/TR/2001/REC-SVG-20010904/DTD/svg10.dtd">
<svg version="1.0" xmlns="http://www.w3.org/2000/svg"
 width="960.000000pt" height="960.000000pt" viewBox="0 0 960.000000 960.000000"
 preserveAspectRatio="xMidYMid meet">
<metadata>
Created by potrace 1.14, written by Peter Selinger 2001-2017
</metadata>
<g transform="translate(0.000000,960.000000) scale(0.100000,-0.100000)"
fill="#000000" stroke="none">
<path d="M1280 4805 c0 -2637 2 -4795 5 -4795 3 0 80 77 172 171 93 94 242
246 333 339 91 92 327 333 525 535 198 202 437 445 530 540 l170 173 0 3086 0
3087 20 4 c23 5 2431 -1 2488 -6 20 -2 37 -6 37 -9 0 -3 11 -6 24 -6 50 -3
204 -58 301 -107 55 -28 102 -53 105 -56 3 -4 31 -26 63 -49 67 -50 151 -132
193 -188 16 -22 31 -41 34 -44 32 -31 120 -201 154 -296 26 -73 66 -212 64
-223 -1 -3 2 -17 5 -31 7 -28 14 -67 25 -150 4 -30 6 -154 6 -275 -1 -177 -5
-241 -22 -330 -30 -160 -32 -169 -39 -185 -3 -8 -7 -19 -9 -25 -28 -100 -116
-281 -181 -374 -44 -63 -159 -184 -231 -244 -49 -41 -157 -110 -237 -150 -65
-32 -230 -93 -277 -102 -11 -2 -29 -7 -40 -11 -11 -3 -30 -7 -41 -9 -12 -1
-44 -6 -72 -11 -27 -4 -185 -8 -350 -8 l-300 -1 -1 1230 -2 1230 -28 2 c-59 4
-70 4 -102 0 -18 -2 -35 0 -38 5 -3 5 -10 5 -16 2 -6 -4 -49 -6 -97 -5 -148 2
-154 2 -159 -3 -2 -3 -13 -1 -23 5 -11 5 -19 6 -19 2 0 -10 -203 -9 -218 1 -7
4 -12 3 -12 -1 0 -10 -63 -8 -79 2 -6 3 -11 3 -11 -2 0 -4 -37 -7 -82 -6 -46
1 -99 2 -118 2 -19 0 -54 0 -77 0 l-43 0 0 -42 c-4 -492 0 -5121 4 -5125 4 -3
25 15 49 41 42 46 214 229 317 336 30 32 116 123 190 202 74 78 154 163 178
188 24 25 94 99 155 164 62 66 138 146 170 180 49 52 64 62 95 63 222 12 398
27 466 40 11 2 42 6 70 9 28 3 60 8 71 10 38 9 77 16 161 29 22 4 56 11 74 16
18 5 37 7 41 4 5 -3 9 -1 9 4 0 5 6 9 13 9 17 0 108 21 212 50 50 14 97 27
105 28 8 2 16 4 18 5 1 2 5 3 10 4 4 1 21 6 37 13 17 6 53 18 82 27 28 9 64
21 80 28 15 6 30 12 33 12 8 2 73 27 115 46 22 10 50 20 62 24 12 4 53 22 92
41 40 19 75 35 80 35 5 0 14 7 21 15 7 8 15 13 19 11 3 -2 20 5 36 15 17 11
42 24 58 30 15 6 27 15 27 21 0 5 4 7 9 3 5 -3 16 2 24 10 9 8 19 15 23 15 4
0 32 16 63 37 78 50 204 135 216 145 5 5 35 27 65 50 30 24 60 47 66 53 7 5
40 35 74 65 56 49 103 96 214 213 20 20 34 37 31 37 -2 0 8 13 23 29 42 46 64
73 112 142 24 35 48 66 52 67 4 2 8 8 8 13 0 5 16 34 36 64 33 52 164 299 164
310 1 3 10 26 21 52 27 63 116 330 123 368 2 17 9 45 15 63 5 18 10 35 10 37
1 3 1 6 2 8 0 1 2 11 3 22 2 11 9 48 15 83 7 34 14 79 17 100 2 20 7 48 10 62
5 28 8 54 20 215 13 184 8 543 -11 725 -12 117 -23 206 -31 243 -2 12 -6 36
-9 52 -2 17 -7 41 -10 55 -3 14 -10 52 -16 85 -5 33 -14 74 -19 90 -5 17 -16
59 -25 95 -23 88 -102 323 -132 387 -13 29 -24 56 -25 60 -4 28 -176 335 -190
341 -5 2 -8 8 -8 14 0 12 -154 218 -205 273 -20 22 -51 56 -69 75 -30 32 -159
152 -188 175 -113 88 -156 120 -229 168 -47 31 -91 57 -98 57 -6 0 -11 5 -11
10 0 6 -5 10 -11 10 -6 0 -24 9 -40 21 -16 11 -29 17 -29 14 0 -3 -12 2 -27
13 -26 17 -77 42 -163 79 -19 8 -44 19 -55 24 -28 12 -79 31 -83 30 -1 -1 -16
6 -32 14 -16 8 -33 16 -37 16 -10 2 -17 4 -68 20 -22 7 -42 14 -45 14 -50 13
-67 18 -80 22 -18 8 -16 7 -65 18 -22 5 -42 9 -45 10 -18 5 -70 15 -95 20 -16
3 -41 7 -55 10 -88 18 -231 36 -241 29 -5 -3 -9 -1 -9 5 0 7 -716 10 -2220 11
l-2220 0 0 -4795z"/>
</g>
</svg>
