<svg xmlns="http://www.w3.org/2000/svg" width="581" height="764" fill="none"><g filter="url(#a)"><path fill="#949CFF" fill-opacity=".2" d="M32.787 278.072a256 256 0 0 0-2.346 10.337c-3.38 16.346-15.788 30.165-32.74 32.167-23.64 2.794-47.288 1.421-69.65-4.153-7.722-1.908-15.7-3.284-23.681-4.564-6.881-1.091-12.936.669-17.489 6.699-4.547 6.05-3.927 11.667-.037 16.927 3.056 4.157 6.08 8.401 9.428 12.338 36.9 43.221 82.77 75.649 139.186 95.495 26.257 9.687 50.186 87.367 71.646 111.134 39.509 43.792 87.246 76.444 150.376 88.254 77.927 14.571 154.618-21.254 193.379-90.708 26.993-48.418 33.771-98.566 28.065-149.195-9.745-86.548-48.382-158.335-114.875-214.797-40.1-34.07-87.204-56.564-144.998-58.37-55.72-1.74-103.506 17.538-141.449 60.078-23.418 26.223-36.961 56.381-44.815 88.358"/></g><g filter="url(#b)"><path fill="#000" fill-opacity=".6" d="M114.105 403.571a169 169 0 0 0-1.547 6.817c-2.229 10.78-10.411 19.894-21.591 21.214-15.59 1.842-31.185.936-45.933-2.739-5.092-1.258-10.353-2.166-15.617-3.01-4.537-.72-8.53.441-11.533 4.417-2.998 3.99-2.59 7.695-.025 11.164 2.016 2.741 4.01 5.54 6.218 8.136 24.335 28.503 54.585 49.889 91.79 62.976 17.315 6.389 33.096 57.617 47.248 73.291 26.056 28.879 57.537 50.413 99.17 58.201 51.391 9.609 101.966-14.017 127.528-59.819 17.801-31.931 22.271-65.002 18.508-98.391-6.427-57.076-31.906-104.418-75.757-141.653-26.445-22.468-57.508-37.303-95.622-38.494-36.746-1.147-68.26 11.566-93.282 39.621-15.444 17.293-24.375 37.181-29.555 58.269"/></g><path fill="url(#c)" fill-opacity=".5" d="M63.545 354.472a180 180 0 0 0 5.788 4.591c9.26 7.061 13.99 18.769 9.755 29.569-5.904 15.062-14.451 28.846-25.242 40.565-3.716 4.052-7.178 8.421-10.58 12.822-2.925 3.798-3.775 7.977-1.432 12.568 2.357 4.594 6.118 5.95 10.714 5.232 3.626-.557 7.297-1.067 10.878-1.866 39.366-8.867 74.805-26.443 105.694-54.227 14.662-12.792 71.652-3.261 93.679-8.837 40.574-10.258 76.761-28.887 104.738-63.178 34.53-42.331 36.725-99.43 5.298-144.092-21.918-31.118-51.493-50.625-85.427-62.779-58.005-20.782-116.035-19.666-173.398 2.903-34.606 13.605-64.15 34.98-84.057 69.145-19.19 32.938-22.487 67.58-7.848 103.467 9.014 22.139 23.727 39.557 41.44 54.117"/><g filter="url(#d)"><path fill="url(#e)" fill-opacity=".5" d="M217.323 246.568a180 180 0 0 1-5.804 4.63c-9.284 7.122-14.025 18.93-9.78 29.823 5.92 15.19 14.489 29.093 25.308 40.912 3.725 4.086 7.197 8.493 10.608 12.932 2.932 3.83 3.785 8.045 1.436 12.676-2.364 4.633-6.134 6.001-10.742 5.277-3.636-.562-7.316-1.077-10.907-1.883-39.469-8.942-75.001-26.669-105.971-54.691-14.7-12.902-71.84-3.289-93.924-8.914-40.68-10.345-76.962-29.134-105.012-63.719-34.621-42.694-36.822-100.282-5.312-145.327C-70.802 46.9-41.15 27.226-7.127 14.967c58.157-20.96 116.34-19.834 173.852 2.928 34.697 13.722 64.319 35.28 84.277 69.737 19.241 33.221 22.547 68.16 7.87 104.355-9.038 22.328-23.79 39.896-41.549 54.581"/></g><defs><filter id="a" width="797.101" height="716.391" x="-216.305" y="29.528" color-interpolation-filters="sRGB" filterUnits="userSpaceOnUse"><feFlood flood-opacity="0" result="BackgroundImageFix"/><feBlend in="SourceGraphic" in2="BackgroundImageFix" result="shape"/><feGaussianBlur result="effect1_foregroundBlur_32_8" stdDeviation="50"/></filter><filter id="b" width="593.773" height="540.546" x="-84.217" y="205.61" color-interpolation-filters="sRGB" filterUnits="userSpaceOnUse"><feFlood flood-opacity="0" result="BackgroundImageFix"/><feBlend in="SourceGraphic" in2="BackgroundImageFix" result="shape"/><feGaussianBlur result="effect1_foregroundBlur_32_8" stdDeviation="50"/></filter><filter id="d" width="413" height="383" x="-130" y="-15" color-interpolation-filters="sRGB" filterUnits="userSpaceOnUse"><feFlood flood-opacity="0" result="BackgroundImageFix"/><feGaussianBlur in="BackgroundImageFix" stdDeviation="7.5"/><feComposite in2="SourceAlpha" operator="in" result="effect1_backgroundBlur_32_8"/><feBlend in="SourceGraphic" in2="effect1_backgroundBlur_32_8" result="shape"/></filter><linearGradient id="c" x1="204" x2="204" y1="110" y2="460" gradientUnits="userSpaceOnUse"><stop stop-color="#5057A7"/><stop offset="1" stop-color="#2A146B"/></linearGradient><linearGradient id="e" x1="76.5" x2="76.5" y1="0" y2="353" gradientUnits="userSpaceOnUse"><stop stop-color="#949CFF"/><stop offset="1" stop-color="#4F15F7"/></linearGradient></defs></svg>