<svg xmlns="http://www.w3.org/2000/svg" width="70" height="60" fill="none"><circle cx="50.3" cy="20.465" r="19.7" fill="url(#a)"/><g filter="url(#b)"><path fill="url(#c)" d="m41.26 53.42-24.952-.678s-3.284-6.373-6.351-17.472-.966-17.458-.966-17.458l29.88 1.554s-2.583 10.404-2.13 17.13c.458 6.825 4.518 16.923 4.518 16.923"/></g><g filter="url(#d)"><path fill="url(#e)" fill-opacity=".3" d="m41.747 52.184-24.04-6.712s-1.64-6.98-1.922-18.491c-.282-11.512 3.3-17.17 3.3-17.17l28.61 8.758s-5.031 9.466-6.224 16.1c-1.211 6.733.276 17.515.276 17.515"/></g><g filter="url(#f)"><path fill="url(#g)" fill-opacity=".3" d="M46.184 51.376 24.086 39.77s-.14-7.168 1.999-18.483c2.138-11.315 6.827-16.096 6.827-16.096l26.136 14.563s-6.904 8.2-9.462 14.438c-2.596 6.329-3.402 17.183-3.402 17.183"/></g><defs><radialGradient id="c" cx="0" cy="0" r="1" gradientTransform="matrix(5.5095 -18.41477 19.69768 5.89333 25.207 35.34)" gradientUnits="userSpaceOnUse"><stop stop-color="#FDFDFD"/><stop offset="1" stop-color="#A6A5C4"/></radialGradient><radialGradient id="e" cx="0" cy="0" r="1" gradientTransform="rotate(-59.298 42.293 -11.47)scale(19.2213 20.5604)" gradientUnits="userSpaceOnUse"><stop stop-color="#FDFDFD"/><stop offset="1" stop-color="#A6A5C4"/></radialGradient><radialGradient id="g" cx="0" cy="0" r="1" gradientTransform="rotate(-47.193 52.005 -31.455)scale(19.2213 20.5604)" gradientUnits="userSpaceOnUse"><stop stop-color="#FDFDFD"/><stop offset="1" stop-color="#A6A5C4"/></radialGradient><filter id="b" width="72.971" height="75.607" x="-11.711" y="-2.188" color-interpolation-filters="sRGB" filterUnits="userSpaceOnUse"><feFlood flood-opacity="0" result="BackgroundImageFix"/><feGaussianBlur in="BackgroundImageFix" stdDeviation="10"/><feComposite in2="SourceAlpha" operator="in" result="effect1_backgroundBlur_188_44"/><feBlend in="SourceGraphic" in2="effect1_backgroundBlur_188_44" result="shape"/></filter><filter id="d" width="71.925" height="82.373" x="-4.23" y="-10.189" color-interpolation-filters="sRGB" filterUnits="userSpaceOnUse"><feFlood flood-opacity="0" result="BackgroundImageFix"/><feGaussianBlur in="BackgroundImageFix" stdDeviation="10"/><feComposite in2="SourceAlpha" operator="in" result="effect1_backgroundBlur_188_44"/><feBlend in="SourceGraphic" in2="effect1_backgroundBlur_188_44" result="shape"/></filter><filter id="f" width="74.964" height="86.183" x="4.084" y="-14.808" color-interpolation-filters="sRGB" filterUnits="userSpaceOnUse"><feFlood flood-opacity="0" result="BackgroundImageFix"/><feGaussianBlur in="BackgroundImageFix" stdDeviation="10"/><feComposite in2="SourceAlpha" operator="in" result="effect1_backgroundBlur_188_44"/><feBlend in="SourceGraphic" in2="effect1_backgroundBlur_188_44" result="shape"/></filter><linearGradient id="a" x1="50.3" x2="50.3" y1=".765" y2="40.164" gradientUnits="userSpaceOnUse"><stop stop-color="#5057A7"/><stop offset="1" stop-color="#2A146B"/></linearGradient></defs></svg>