<svg width="70" height="60" viewBox="0 0 70 60" fill="none" xmlns="http://www.w3.org/2000/svg">
<g filter="url(#filter0_b_188_44)">
<path d="M41.2594 53.4191L16.3083 52.7416C16.3083 52.7416 13.0244 46.369 9.95685 35.2699C6.8893 24.1708 8.99127 17.8125 8.99127 17.8125L38.8709 19.3657C38.8709 19.3657 36.2878 29.7696 36.7403 36.4956C37.1994 43.3208 41.2594 53.4191 41.2594 53.4191Z" fill="url(#paint0_radial_188_44)"/>
</g>
<g filter="url(#filter1_b_188_44)">
<path d="M41.7474 52.1841L17.7067 45.4715C17.7067 45.4715 16.0675 38.4924 15.7853 26.9807C15.503 15.469 19.0852 9.81091 19.0852 9.81091L47.6946 18.5691C47.6946 18.5691 42.6639 28.0351 41.4705 34.6698C40.2596 41.4024 41.7474 52.1841 41.7474 52.1841Z" fill="url(#paint1_diamond_188_44)" fill-opacity="0.3"/>
</g>
<g filter="url(#filter2_b_188_44)">
<path d="M46.1842 51.3755L24.0857 39.7707C24.0857 39.7707 23.9466 32.6031 26.0847 21.2881C28.2228 9.97319 32.9119 5.19212 32.9119 5.19212L59.0485 19.7551C59.0485 19.7551 52.1445 27.9557 49.5863 34.1926C46.9905 40.5215 46.1842 51.3755 46.1842 51.3755Z" fill="url(#paint2_diamond_188_44)" fill-opacity="0.3"/>
</g>
<defs>
<filter id="filter0_b_188_44" x="-11.7114" y="-2.1875" width="72.9707" height="75.6066" filterUnits="userSpaceOnUse" color-interpolation-filters="sRGB">
<feFlood flood-opacity="0" result="BackgroundImageFix"/>
<feGaussianBlur in="BackgroundImageFix" stdDeviation="10"/>
<feComposite in2="SourceAlpha" operator="in" result="effect1_backgroundBlur_188_44"/>
<feBlend mode="normal" in="SourceGraphic" in2="effect1_backgroundBlur_188_44" result="shape"/>
</filter>
<filter id="filter1_b_188_44" x="-4.23047" y="-10.1891" width="71.9253" height="82.3732" filterUnits="userSpaceOnUse" color-interpolation-filters="sRGB">
<feFlood flood-opacity="0" result="BackgroundImageFix"/>
<feGaussianBlur in="BackgroundImageFix" stdDeviation="10"/>
<feComposite in2="SourceAlpha" operator="in" result="effect1_backgroundBlur_188_44"/>
<feBlend mode="normal" in="SourceGraphic" in2="effect1_backgroundBlur_188_44" result="shape"/>
</filter>
<filter id="filter2_b_188_44" x="4.08398" y="-14.8079" width="74.9644" height="86.1834" filterUnits="userSpaceOnUse" color-interpolation-filters="sRGB">
<feFlood flood-opacity="0" result="BackgroundImageFix"/>
<feGaussianBlur in="BackgroundImageFix" stdDeviation="10"/>
<feComposite in2="SourceAlpha" operator="in" result="effect1_backgroundBlur_188_44"/>
<feBlend mode="normal" in="SourceGraphic" in2="effect1_backgroundBlur_188_44" result="shape"/>
</filter>
<radialGradient id="paint0_radial_188_44" cx="0" cy="0" r="1" gradientUnits="userSpaceOnUse" gradientTransform="translate(25.2072 35.3409) rotate(-73.3434) scale(19.2213 20.5604)">
<stop stop-color="#FDFDFD"/>
<stop offset="1" stop-color="#A6A5C4"/>
</radialGradient>
<radialGradient id="paint1_diamond_188_44" cx="0" cy="0" r="1" gradientUnits="userSpaceOnUse" gradientTransform="translate(30.5625 30.7507) rotate(-59.2982) scale(19.2213 20.5604)">
<stop stop-color="#FDFDFD"/>
<stop offset="1" stop-color="#A6A5C4"/>
</radialGradient>
<radialGradient id="paint2_diamond_188_44" cx="0" cy="0" r="1" gradientUnits="userSpaceOnUse" gradientTransform="translate(39.7427 28.0731) rotate(-47.1931) scale(19.2213 20.5604)">
<stop stop-color="#FDFDFD"/>
<stop offset="1" stop-color="#A6A5C4"/>
</radialGradient>
</defs>
</svg>
