<svg xmlns="http://www.w3.org/2000/svg" width="22" height="25" fill="none"><path fill="url(#a)" d="M10.98 24.5c.92 0 10.168-4.182 10.648-18.318a1.24 1.24 0 0 0-.973-1.244c-2.431-.544-4.745-1.515-6.865-2.823C12.435 1.28 11.13.5 10.98.5c-.122 0-1.028.552-2.06 1.208-2.18 1.384-4.554 2.444-7.06 3.068l-.531.132a1.305 1.305 0 0 0-.995 1.304C.826 20.324 10.06 24.5 10.98 24.5"/><defs><linearGradient id="a" x1="10.981" x2="10.981" y1=".5" y2="24.5" gradientUnits="userSpaceOnUse"><stop stop-color="#FF748D"/><stop offset="1" stop-color="#F71530"/></linearGradient></defs></svg>