<svg xmlns="http://www.w3.org/2000/svg" width="22" height="18" fill="none"><path fill="#34AADF" d="M1.45 7.839s9.288-3.951 12.51-5.343C15.194 1.94 19.382.16 19.382.16s1.933-.78 1.771 1.113c-.053.78-.483 3.506-.912 6.456-.644 4.174-1.342 8.737-1.342 8.737s-.108 1.28-1.02 1.503c-.913.223-2.416-.78-2.685-1.002-.215-.167-4.026-2.671-5.422-3.896-.376-.334-.805-1.001.054-1.78a208 208 0 0 0 5.637-5.566c.644-.668 1.288-2.226-1.396-.334-3.812 2.727-7.57 5.287-7.57 5.287s-.859.557-2.47.056c-1.61-.5-3.49-1.169-3.49-1.169S-.75 8.73 1.452 7.84"/></svg>