<svg xmlns="http://www.w3.org/2000/svg" width="24" height="25" fill="none"><path fill="#fff" d="M12 24.385c6.627 0 12-5.373 12-12 0-6.628-5.373-12-12-12s-12 5.372-12 12c0 6.627 5.373 12 12 12"/><path fill="#34AADF" d="M5.144 12.122s5.945-2.53 8.006-3.42c.79-.356 3.47-1.496 3.47-1.496s1.237-.498 1.134.713c-.034.498-.309 2.244-.584 4.132-.412 2.67-.859 5.591-.859 5.591s-.069.82-.653.962-1.546-.498-1.718-.64c-.137-.108-2.577-1.71-3.47-2.494-.24-.214-.515-.641.034-1.14a134 134 0 0 0 3.608-3.562c.412-.427.825-1.424-.893-.213-2.44 1.745-4.845 3.383-4.845 3.383s-.55.356-1.58.036-2.234-.748-2.234-.748-.824-.534.584-1.104"/></svg>