<svg xmlns="http://www.w3.org/2000/svg" width="22" height="24" fill="none"><path fill="url(#a)" d="M11.29 24c.92 0 10.167-4.182 10.647-18.318a1.24 1.24 0 0 0-.973-1.244c-2.431-.544-4.744-1.515-6.865-2.823C12.744.78 11.439 0 11.289 0c-.121 0-1.028.552-2.06 1.208-2.18 1.384-4.554 2.444-7.06 3.068l-.531.132a1.305 1.305 0 0 0-.995 1.304C1.135 19.824 10.37 24 11.29 24"/><defs><linearGradient id="a" x1="11.29" x2="11.29" y1="0" y2="24" gradientUnits="userSpaceOnUse"><stop stop-color="#949CFF"/><stop offset="1" stop-color="#4F15F7"/></linearGradient></defs></svg>