<svg xmlns="http://www.w3.org/2000/svg" width="42" height="45" fill="none"><g filter="url(#a)"><path fill="url(#b)" d="M20.647 30.885c.92 0 10.168-4.182 10.648-18.318a1.24 1.24 0 0 0-.973-1.244c-2.431-.544-4.745-1.515-6.865-2.823-1.355-.836-2.66-1.615-2.81-1.615-.122 0-1.028.552-2.06 1.207-2.18 1.384-4.554 2.445-7.06 3.068l-.531.132A1.305 1.305 0 0 0 10 12.597c.492 14.112 9.726 18.287 10.646 18.287"/></g><defs><linearGradient id="b" x1="20.648" x2="20.648" y1="6.885" y2="30.884" gradientUnits="userSpaceOnUse"><stop stop-color="#949CFF"/><stop offset="1" stop-color="#4F15F7"/></linearGradient><filter id="a" width="41.295" height="44" x="0" y=".885" color-interpolation-filters="sRGB" filterUnits="userSpaceOnUse"><feFlood flood-opacity="0" result="BackgroundImageFix"/><feColorMatrix in="SourceAlpha" result="hardAlpha" values="0 0 0 0 0 0 0 0 0 0 0 0 0 0 0 0 0 0 127 0"/><feOffset dy="4"/><feGaussianBlur stdDeviation="5"/><feComposite in2="hardAlpha" operator="out"/><feColorMatrix values="0 0 0 0 0.547708 0 0 0 0 0.583764 0 0 0 0 0.995833 0 0 0 0.75 0"/><feBlend in2="BackgroundImageFix" result="effect1_dropShadow_188_187"/><feBlend in="SourceGraphic" in2="effect1_dropShadow_188_187" result="shape"/></filter></defs></svg>