<svg xmlns="http://www.w3.org/2000/svg" width="25" height="24" fill="none"><path fill="#00D95F" d="m.163 23.886 1.714-6.367A11.76 11.76 0 0 1 .64 9.37 11.8 11.8 0 0 1 5.06 2.4a11.84 11.84 0 0 1 15.454.999 11.77 11.77 0 0 1 1.2 15.4 11.82 11.82 0 0 1-6.926 4.498A11.85 11.85 0 0 1 6.6 22.17zm6.747-4.099.398.236a9.57 9.57 0 0 0 11.571-1.404 9.509 9.509 0 0 0 1.598-11.517 9.55 9.55 0 0 0-4.612-4.069 9.58 9.58 0 0 0-6.142-.417 9.56 9.56 0 0 0-5.122 3.407 9.5 9.5 0 0 0-1.975 5.816 9.4 9.4 0 0 0 1.396 4.94l.25.41-.958 3.554z"/><path fill="#00D95F" fill-rule="evenodd" d="M16.38 13.66a1.97 1.97 0 0 0-1.688-.383c-.438.181-.722.868-1.005 1.211a.42.42 0 0 1-.54.121 7.64 7.64 0 0 1-3.819-3.264.457.457 0 0 1 .061-.633c.316-.312.548-.698.675-1.123.028-.47-.08-.937-.31-1.346a3.15 3.15 0 0 0-.979-1.474 1.35 1.35 0 0 0-1.45.222 2.98 2.98 0 0 0-1.033 2.355q.002.377.095.74c.156.582.397 1.137.715 1.65q.345.588.749 1.137c.877 1.2 1.979 2.22 3.245 3.001.636.397 1.315.72 2.024.963a4.5 4.5 0 0 0 2.355.37 2.83 2.83 0 0 0 2.132-1.582c.117-.252.152-.534.101-.807-.121-.559-.87-.889-1.329-1.158" clip-rule="evenodd"/></svg>