<svg xmlns="http://www.w3.org/2000/svg" width="24" height="25" fill="none"><path fill="#fff" d="m0 24.386 1.714-6.367A11.76 11.76 0 0 1 .477 9.87 11.8 11.8 0 0 1 4.896 2.9 11.84 11.84 0 0 1 20.35 3.9a11.769 11.769 0 0 1 1.2 15.4 11.82 11.82 0 0 1-6.926 4.498 11.85 11.85 0 0 1-8.187-1.128zm6.747-4.099.398.236a9.57 9.57 0 0 0 11.571-1.404 9.51 9.51 0 0 0 1.598-11.517 9.55 9.55 0 0 0-4.612-4.069 9.58 9.58 0 0 0-6.142-.417 9.56 9.56 0 0 0-5.122 3.407 9.5 9.5 0 0 0-1.975 5.816 9.4 9.4 0 0 0 1.396 4.94l.25.41-.958 3.554z"/><path fill="#fff" fill-rule="evenodd" d="M16.215 14.16a1.97 1.97 0 0 0-1.686-.383c-.439.181-.722.868-1.005 1.211a.42.42 0 0 1-.54.121 7.64 7.64 0 0 1-3.82-3.264.457.457 0 0 1 .062-.633c.316-.312.548-.698.674-1.123a2.44 2.44 0 0 0-.31-1.346 3.15 3.15 0 0 0-.978-1.474 1.35 1.35 0 0 0-1.451.222 2.98 2.98 0 0 0-1.032 2.355q.001.377.094.74c.157.582.398 1.137.715 1.65q.345.588.75 1.137c.876 1.2 1.978 2.22 3.245 3.001.635.398 1.314.72 2.024.963a4.5 4.5 0 0 0 2.354.37 2.83 2.83 0 0 0 2.133-1.582c.116-.252.151-.534.1-.807-.12-.559-.87-.889-1.329-1.158" clip-rule="evenodd"/></svg>